PathFileType	4	(X/Y/Z)	/Users/niels/Desktop/University/Third Semester/Perception and Action/Exam/Gymnastics Motion Tracking/Code for Gym Tracking/Analyzed Data/Webcam_Backflip/id1_2_trajectory_Sports2D/id1_2_trajectory_Sports2D_px_person00.trc
DataRate	CameraRate	NumFrames	NumMarkers	Units	OrigDataRate	OrigDataStartFrame	OrigNumFrames
29.714285714285715	29.714285714285715	10	22	m	29.714285714285715	65	105
Frame#	Time	Hip			RHip			RKnee			RAnkle			RBigToe			RSmallToe			RHeel			LHip			LKnee			LAnkle			LBigToe			LSmallToe			LHeel			Neck			Head			Nose			RShoulder			RElbow			RWrist			LShoulder			LElbow			LWrist		
		X1	Y1	Z1	X2	Y2	Z2	X3	Y3	Z3	X4	Y4	Z4	X5	Y5	Z5	X6	Y6	Z6	X7	Y7	Z7	X8	Y8	Z8	X9	Y9	Z9	X10	Y10	Z10	X11	Y11	Z11	X12	Y12	Z12	X13	Y13	Z13	X14	Y14	Z14	X15	Y15	Z15	X16	Y16	Z16	X17	Y17	Z17	X18	Y18	Z18	X19	Y19	Z19	X20	Y20	Z20	X21	Y21	Z21	X22	Y22	Z22
65	2.1875	0.30548635886262865	-0.5245261624950064	0.0	0.2867505243938556	-0.5250706855857591	0.0	0.3657487393480318	-0.5799581509034857	0.0	0.44876262699865493	-0.6479774771436151	0.0	0.5044447986928323	-0.6264795744463023	0.0	0.50037358086876	-0.6398797673274227	0.0	0.45907880649593225	-0.6657729485722935	0.0	0.32721230677281615	-0.5229272189298817	0.0	0.3768679581184491	-0.6270422498892799	0.0	0.3163503527510099	-0.7221361257508533	0.0	0.3537269202184476	-0.755808679417561	0.0	0.3513858265603889	-0.7523143992864096	0.0	0.2987459566106974	-0.7311477056791852	0.0	0.3034999579422689	-0.3877811207697378	0.0	0.35302973607087984	-0.3211363167928706	0.0	0.3490698981185132	-0.37173866453680254	0.0	0.26133387317767676	-0.3862202961380951	0.0	0.22042569956817326	-0.4445216199214314	0.0	0.25225619807917987	-0.5012105059947748	0.0	0.337497542967155	-0.40938398076293175	0.0	0.3720207040847283	-0.45957980152801164	0.0	0.4127117463848002	-0.4697050742966932	0.0
66	2.2211538461538463	0.30298795419426117	-0.5204002630105735	0.0	0.2851195674393583	-0.5209652712668984	0.0	0.3692112524663122	-0.5620373225549286	0.0	0.4582562382091706	-0.6221298294276422	0.0	0.5128370474079922	-0.5950982922575406	0.0	0.5101941471534214	-0.6085147782752651	0.0	0.4698906155494205	-0.6389579296712757	0.0	0.32454498102441487	-0.5198799379549575	0.0	0.37533745794415513	-0.6264241643207185	0.0	0.3160447064570855	-0.7218777982220854	0.0	0.35424079778285855	-0.7555153202357665	0.0	0.3511021197492344	-0.7522224893291991	0.0	0.2983661529100487	-0.7300778156951533	0.0	0.2991900889212301	-0.38627244703190505	0.0	0.34700676600837344	-0.3185544547736044	0.0	0.3431229678765302	-0.3691537637593208	0.0	0.2596033574023032	-0.38343651952898755	0.0	0.21481444818721976	-0.4346794174800369	0.0	0.25079484562735316	-0.4779489990904995	0.0	0.3346873399076832	-0.40597952429967915	0.0	0.3753546754476997	-0.4480799362689532	0.0	0.41537824912440124	-0.4440450788326243	0.0
67	2.254807692307692	0.3013814857480146	-0.5161635016850579	0.0	0.2839730523746637	-0.5168640199478156	0.0	0.371763777955672	-0.5454936707633105	0.0	0.4656340304979308	-0.597861158491463	0.0	0.518076017579273	-0.5663937277886129	0.0	0.5165777952313588	-0.5795452068121438	0.0	0.478322048403157	-0.6134394781916793	0.0	0.32331523021227704	-0.5166056202121649	0.0	0.3736818160747403	-0.6256398104215395	0.0	0.31585367681363785	-0.721144781496838	0.0	0.35446733726901886	-0.7557848773171961	0.0	0.35105156168660345	-0.7525025041961134	0.0	0.2982975329518335	-0.7285629785696238	0.0	0.2947662809152123	-0.3839678920242927	0.0	0.3391692132902568	-0.3151580113607167	0.0	0.3357993959047111	-0.36528725378187477	0.0	0.2565645470669949	-0.3808510846483109	0.0	0.20728233130746102	-0.42389209852387344	0.0	0.24578606775256992	-0.44948043438682267	0.0	0.3323153798974963	-0.40180757015710833	0.0	0.3801315534753525	-0.4358093803370363	0.0	0.421584023307424	-0.42064769480217884	0.0
68	2.2884615384615383	0.30077835945937914	-0.5117841655480891	0.0	0.28341366868723	-0.5127049036431855	0.0	0.37375743962096497	-0.5311911877741831	0.0	0.47119811703609626	-0.5762280736428252	0.0	0.5209631655272001	-0.5411258678227379	0.0	0.5203089433693109	-0.5539586977962957	0.0	0.48495383425482624	-0.590475598403042	0.0	0.3234415115139718	-0.5128710543643817	0.0	0.37183797106208877	-0.624554430055302	0.0	0.3156888475198721	-0.7200742657011274	0.0	0.354431525913611	-0.7564222989637835	0.0	0.3512518811261524	-0.7530581150423713	0.0	0.2983796906965733	-0.7269265000864996	0.0	0.2906289737874485	-0.3810538185213431	0.0	0.3300382823908262	-0.31096805531320093	0.0	0.32750935373078904	-0.36041542375387586	0.0	0.2523648873530509	-0.3787189640851284	0.0	0.19843392914425528	-0.4129911314201188	0.0	0.23583804502828012	-0.41833337429411027	0.0	0.3306766741749276	-0.3969691300379893	0.0	0.3861870186691733	-0.42358395209930505	0.0	0.43193371089267707	-0.4010079767246848	0.0
69	2.3221153846153846	0.3010989248037872	-0.5072723254476917	0.0	0.28337098557149343	-0.5084193326714919	0.0	0.3753978691382347	-0.519414475618432	0.0	0.4752412491476795	-0.5581827201888011	0.0	0.5224206869797823	-0.5200706983559058	0.0	0.5223085799500378	-0.5326878902838472	0.0	0.4902227782019856	-0.5712408922850402	0.0	0.32446231196275477	-0.508572017687981	0.0	0.3698159035201687	-0.623160357643453	0.0	0.31543754574767835	-0.7189665037581628	0.0	0.354150591954135	-0.7571684423947478	0.0	0.3515788526917119	-0.7537692875066299	0.0	0.29836282484616394	-0.7255154581145249	0.0	0.28729402334888127	-0.37789384271998055	0.0	0.32054070525457784	-0.3059995193752105	0.0	0.3189657798191288	-0.35487895519710827	0.0	0.24751217185342014	-0.3770557502926501	0.0	0.1890631711521687	-0.4025866680078694	0.0	0.2203800877379678	-0.3881023078921887	0.0	0.33010596405785453	-0.3916541552765421	0.0	0.39300602199446577	-0.4123169987816633	0.0	0.4453656778542993	-0.3859862485066176	0.0
70	2.355769230769231	0.3020876074748023	-0.502853633398539	0.0	0.2835972959113833	-0.5040966928367486	0.0	0.37682111066583873	-0.5102497046946407	0.0	0.4780629216238328	-0.5445283733953278	0.0	0.5233094937832004	-0.5039791987944388	0.0	0.5234809466370034	-0.5165136379923446	0.0	0.4944432135212027	-0.5566641802371655	0.0	0.3257809713373153	-0.5039451613069289	0.0	0.3676455552586792	-0.6215175384845837	0.0	0.3150180900137115	-0.7181322570964759	0.0	0.3536150737827151	-0.7578357202645348	0.0	0.3518005256559056	-0.7545598587627954	0.0	0.2980706056738241	-0.7246348901926424	0.0	0.28525417878275755	-0.3748546888429831	0.0	0.31176607578545035	-0.3003439359671307	0.0	0.31111789957399855	-0.34899609299452233	0.0	0.24277117394928682	-0.3756167193894273	0.0	0.17997872414765428	-0.39311469261608956	0.0	0.20008323386170881	-0.36267762851985286	0.0	0.3308321043971958	-0.3861973118184252	0.0	0.39970299964015055	-0.4028633160708723	0.0	0.45953989243338395	-0.37614050652460956	0.0
71	2.3894230769230766	0.3033447406745582	-0.49896261981554413	0.0	0.28377218625570694	-0.5000426399516265	0.0	0.37811762795877496	-0.5037852301354757	0.0	0.47998080708600704	-0.535855374223981	0.0	0.5242718832480945	-0.4934370923535013	0.0	0.5245379946280202	-0.5059524394100888	0.0	0.4978229879478724	-0.5474464759408569	0.0	0.3268294175050632	-0.4995977975765406	0.0	0.36533081634122916	-0.619672881455447	0.0	0.3143898666199391	-0.7176845129533531	0.0	0.35278328925869423	-0.7583397765898549	0.0	0.35162204267254826	-0.7553702868745229	0.0	0.29745854653347936	-0.7244332542895437	0.0	0.2846980106959005	-0.3721126371389197	0.0	0.3047246885604142	-0.29423175410663266	0.0	0.3049794917004455	-0.3430831186511363	0.0	0.2388931093556253	-0.37407574246586434	0.0	0.17188462394933357	-0.38500756696540334	0.0	0.1767555519835198	-0.3451084862212548	0.0	0.3327172557385185	-0.3810655509587423	0.0	0.40522286540456337	-0.3958751682782847	0.0	0.4716523118422772	-0.37185457351643814	0.0
72	2.423076923076923	0.3044565669021905	-0.4960094049520626	0.0	0.28366656993106687	-0.49661924635390314	0.0	0.3793023406113546	-0.5000777275084715	0.0	0.4812994392739262	-0.5324759534241729	0.0	0.5257056439663694	-0.4888691546142315	0.0	0.5259335859751568	-0.5013301543387634	0.0	0.5004292053725862	-0.5440303349107861	0.0	0.32718766066738486	-0.49621024176158024	0.0	0.36283094832375007	-0.6176546902723813	0.0	0.31351597384694363	-0.717509171047973	0.0	0.3516131110800955	-0.7586121939368442	0.0	0.350792134372344	-0.7560590331109845	0.0	0.29654496927266566	-0.7248310626830148	0.0	0.28539454394727076	-0.3695810568541761	0.0	0.3001886150945457	-0.2879948979715336	0.0	0.3013697286312823	-0.3374415792421566	0.0	0.23636324742795228	-0.372236076867737	0.0	0.1654058865437971	-0.37878451652711786	0.0	0.15286540903143744	-0.3368080407533637	0.0	0.3352198934541555	-0.37670743477949675	0.0	0.4085698983524941	-0.39176890425983274	0.0	0.47919881284816995	-0.3732980547984038	0.0
73	2.456730769230769	0.3051503357691691	-0.49412995002805676	0.0	0.28326388925458296	-0.4940172770474999	0.0	0.3803095662815303	-0.49908857688984654	0.0	0.4822092925955081	-0.5343536425169468	0.0	0.527769605157059	-0.49057993111721004	0.0	0.5278474038798986	-0.5028910418790017	0.0	0.5021760815418452	-0.5463962773377051	0.0	0.3266599226976842	-0.49416101727898937	0.0	0.3600440383964483	-0.6155186705721533	0.0	0.31239643944666623	-0.717399044953539	0.0	0.3501475580446474	-0.758567769775565	0.0	0.3492688743033108	-0.7563878220279074	0.0	0.29538098372142607	-0.7255797527266368	0.0	0.2869111445759025	-0.3670055335802646	0.0	0.2985505503535886	-0.28195934733148453	0.0	0.30067164200949936	-0.3322950292214434	0.0	0.2353814935946101	-0.37010503983335385	0.0	0.16109549803144427	-0.37502016238345814	0.0	0.13095305366509577	-0.33762627449633903	0.0	0.33761088295399944	-0.37335852518017054	0.0	0.40901793381963336	-0.3907536562503975	0.0	0.48052756401614644	-0.380321620080268	0.0
74	2.4903846153846154	0.3053388897847798	-0.4931748372420575	0.0	0.2827456353312438	-0.4921884103030638	0.0	0.3809940458685867	-0.5006921363676489	0.0	0.4826563998960701	-0.5410747957793692	0.0	0.5303097726980952	-0.4986595460791729	0.0	0.5301159814875558	-0.5107530105771733	0.0	0.5028199249154732	-0.5539730734932811	0.0	0.3252057379697554	-0.4934151947977261	0.0	0.3568841824819917	-0.6133447888957709	0.0	0.3111492108403544	-0.7171782564800523	0.0	0.3485902917078375	-0.7581774528649201	0.0	0.3473101207948899	-0.7561678468307155	0.0	0.29409446687971597	-0.7264083873586438	0.0	0.2888868782464236	-0.36415180330939245	0.0	0.2997146704028662	-0.27635603750852544	0.0	0.30275091391619924	-0.32776890767523764	0.0	0.2359512537329775	-0.3678234169393102	0.0	0.15935929322465436	-0.3742885426284903	0.0	0.11314284165172095	-0.3464939945849308	0.0	0.33911722344325473	-0.37101041898304554	0.0	0.40638621184517115	-0.39285232852128255	0.0	0.4752032255393929	-0.3923948316015379	0.0
